<svg xmlns="http://www.w3.org/2000/svg" xmlns:xlink="http://www.w3.org/1999/xlink" width="19px" height="13px">
								<path fill-rule="evenodd" fill="rgb(255, 255, 255)" d="M18.976,11.740 C18.711,12.624 18.188,13.009 17.268,13.007 C16.088,13.004 14.908,13.006 13.728,13.006 C9.676,13.006 5.623,13.006 1.571,13.004 C0.845,13.004 0.234,12.527 0.049,11.830 C0.038,11.790 0.020,11.752 0.006,11.713 C0.006,8.239 0.006,4.766 0.006,1.292 C0.018,1.265 0.035,1.240 0.043,1.212 C0.217,0.561 0.631,0.140 1.297,0.034 C1.689,-0.028 2.097,0.000 2.498,0.000 C7.464,-0.001 12.431,-0.001 17.398,-0.001 C18.172,-0.000 18.775,0.468 18.963,1.211 C18.970,1.239 18.987,1.265 18.999,1.292 C18.999,4.766 18.999,8.239 18.999,11.713 C18.991,11.722 18.979,11.729 18.976,11.740 ZM16.935,11.808 C15.332,10.209 13.726,8.607 12.114,6.999 C12.078,7.030 12.031,7.069 11.986,7.109 C11.360,7.668 10.735,8.228 10.107,8.784 C9.812,9.046 9.527,9.045 9.228,8.792 C9.130,8.708 9.032,8.623 8.934,8.538 C8.293,7.988 7.651,7.439 7.023,6.900 C5.374,8.542 3.733,10.176 2.094,11.808 C7.045,11.808 12.001,11.808 16.935,11.808 ZM1.204,1.907 C1.204,4.942 1.204,7.940 1.204,10.927 C2.822,9.315 4.440,7.703 6.069,6.080 C4.463,4.703 2.843,3.313 1.204,1.907 ZM2.197,1.192 C4.698,3.338 7.172,5.460 9.658,7.593 C12.046,5.462 14.426,3.338 16.831,1.192 C11.937,1.192 7.086,1.192 2.197,1.192 ZM17.798,1.924 C16.194,3.355 14.613,4.767 13.063,6.150 C14.652,7.734 16.233,9.311 17.798,10.872 C17.798,7.920 17.798,4.936 17.798,1.924 Z"></path>
							</svg>