<svg xmlns="http://www.w3.org/2000/svg" xmlns:xlink="http://www.w3.org/1999/xlink" width="18px" height="18px">
								<path fill-rule="nonzero" fill="rgb(255,255,255)" d="M17.978,14.810 C17.902,15.308 17.823,15.824 17.621,16.318 L17.523,16.553 C17.243,17.265 16.705,17.696 15.878,17.870 C15.418,17.967 14.963,18.004 14.524,18.004 C13.910,18.004 13.327,17.932 12.801,17.850 C10.043,17.421 7.603,16.356 5.551,14.683 C2.772,12.418 0.996,9.457 0.274,5.883 C0.130,5.171 0.050,4.538 0.029,3.948 L-0.001,3.802 L-0.001,2.952 L0.031,2.745 C0.051,2.637 0.071,2.529 0.081,2.420 C0.172,1.382 0.713,0.688 1.688,0.358 C2.221,0.178 2.766,0.078 3.276,-0.003 L4.256,-0.006 L4.422,0.023 C4.502,0.040 4.583,0.057 4.664,0.071 C5.421,0.194 5.992,0.631 6.362,1.368 C6.650,1.944 6.842,2.605 6.950,3.389 C7.077,4.316 7.053,5.123 6.875,5.855 C6.852,5.952 6.819,6.047 6.786,6.142 L6.748,6.256 C6.554,6.850 6.122,7.203 5.500,7.277 L5.360,7.296 C5.272,7.308 5.183,7.320 5.091,7.327 C5.470,8.187 5.953,8.992 6.527,9.722 C7.599,11.088 8.993,12.155 10.672,12.897 C10.689,12.688 10.720,12.508 10.750,12.338 C10.834,11.868 11.099,11.527 11.537,11.325 C11.940,11.139 12.374,11.027 12.826,10.993 C14.095,10.897 15.226,11.053 16.282,11.467 C17.327,11.877 17.895,12.613 17.970,13.654 L17.998,13.763 L17.978,14.810 ZM11.761,14.396 C11.548,14.562 11.238,14.571 10.843,14.419 C7.267,13.048 4.802,10.537 3.518,6.955 C3.394,6.611 3.474,6.387 3.563,6.260 C3.653,6.131 3.841,5.976 4.221,5.976 C4.221,5.976 4.222,5.976 4.222,5.976 L4.463,5.978 C4.756,5.983 5.033,5.985 5.309,5.946 C5.411,5.932 5.452,5.906 5.498,5.781 C5.629,5.426 5.689,5.018 5.676,4.567 L5.676,4.560 C5.673,3.579 5.525,2.769 5.223,2.085 C5.027,1.642 4.753,1.422 4.333,1.373 C4.132,1.350 3.942,1.338 3.758,1.338 C3.661,1.338 3.565,1.342 3.470,1.348 C2.825,1.393 2.283,1.534 1.814,1.777 C1.627,1.874 1.531,1.994 1.496,2.178 C1.405,2.644 1.327,3.042 1.340,3.448 C1.366,4.293 1.456,5.048 1.616,5.757 C2.631,10.281 5.267,13.554 9.449,15.485 C10.705,16.065 12.073,16.427 13.632,16.592 C14.431,16.676 15.087,16.655 15.695,16.525 C16.001,16.460 16.178,16.310 16.304,16.008 C16.583,15.340 16.697,14.632 16.652,13.844 C16.619,13.293 16.392,12.957 15.937,12.786 C15.872,12.761 15.807,12.735 15.743,12.709 C15.657,12.674 15.572,12.639 15.485,12.609 C14.969,12.432 14.392,12.335 13.670,12.304 C13.117,12.281 12.637,12.344 12.199,12.499 C12.100,12.534 12.056,12.572 12.038,12.713 C11.997,13.037 11.975,13.305 12.005,13.565 C12.051,13.954 11.968,14.234 11.761,14.396 Z"></path>
</svg>